<?xml version="1.0" encoding="UTF-8" standalone="no"?>
<!-- Created with Inkscape (http://www.inkscape.org/) -->

<svg
   width="200mm"
   height="100mm"
   viewBox="0 0 200 100"
   version="1.1"
   id="svg1"
   xmlns="http://www.w3.org/2000/svg"
   xmlns:svg="http://www.w3.org/2000/svg">
   <defs
      id="defs1" />
   <path
      id="rect1"
      style="fill:#ffffff;stroke-width:0.264583;fill-opacity:1"
      d="M 0 0 L 0 100.0001 L 9.9999064 100.0001 A 90 90 0 0 1 10.357507 94.998853 L 40.437842 94.998853 A 60 60 0 0 0 40.000142 100.0001 L 160.00005 100.0001 A 60 60 0 0 0 159.56287 95.001436 L 189.84836 95.001436 A 90 90 0 0 1 189.99977 100.0001 L 200.0002 100.0001 L 200.0002 0 L 0 0 z M 100.0001 9.9999064 A 90 90 0 0 1 189.421 90.001225 L 159.12517 90.001225 A 60 60 0 0 0 100.0001 40.000142 A 60 60 0 0 0 40.875024 89.999158 L 10.715108 89.999158 A 90 90 0 0 1 100.0001 9.9999064 z " />
   <g
      id="layer1">
      <path
         id="path1"
         style="fill:#000000;stroke-width:0.264583;fill-opacity:1"
         d="M 100.0001 0 A 100 100 0 0 0 0 100.0001 A 100 100 0 0 0 0.001550293 100.02232 L 5.0017619 100.02232 A 95 95 0 0 1 5.0002116 100.0001 A 95 95 0 0 1 100.0001 5.0002116 A 95 95 0 0 1 194.99998 100.0001 A 95 95 0 0 1 194.99843 100.02232 L 199.99968 100.02232 A 100 100 0 0 0 200.0002 100.0001 A 100 100 0 0 0 100.0001 0 z " />
      <path
         id="circle4"
         style="fill:#000000;fill-opacity:1;stroke-width:0.264583"
         d="M 100.0001 44.999837 A 55 55 0 0 0 44.999837 100.0001 A 55 55 0 0 0 45.001388 100.02232 L 50.001599 100.02232 A 50 50 0 0 1 50.000049 100.0001 A 50 50 0 0 1 100.0001 50.000049 A 50 50 0 0 1 150.00015 100.0001 A 50 50 0 0 1 149.99963 100.02232 L 154.99829 100.02232 A 55 55 0 0 0 154.99984 100.0001 A 55 55 0 0 0 100.0001 44.999837 z " />
      <rect
         style="fill:#000000;fill-opacity:1;stroke-width:0.264583"
         id="rect6"
         width="50"
         height="5"
         x="0.012867588"
         y="95" />
      <rect
         style="fill:#000000;fill-opacity:1;stroke-width:0.264583"
         id="rect9"
         width="50"
         height="5"
         x="150"
         y="95" />
   </g>
</svg>