<?xml version="1.0" encoding="UTF-8" standalone="no"?>
<svg
   shape-rendering="geometricPrecision"
   text-rendering="geometricPrecision"
   image-rendering="optimizeQuality"
   fill-rule="evenodd"
   clip-rule="evenodd"
   viewBox="0 0 131.24 260.79"
   version="1.1"
   id="svg1"
   xmlns="http://www.w3.org/2000/svg"
   xmlns:svg="http://www.w3.org/2000/svg">
  <defs
     id="defs1" />
  <path
     id="rect1"
     style="fill:#f9f9f9"
     d="M 0.01171875 0.005859375 L 0.01171875 260.78125 L 131.25 260.78125 L 131.25 0.005859375 L 0.01171875 0.005859375 z M 57.875 24.183594 C 62.42747 24.239844 66.980469 27.068077 66.980469 32.498047 L 66.980469 171.31055 C 80.710385 175.26049 90.759766 187.91004 90.759766 202.91992 C 90.759766 221.0798 76.039027 235.80078 57.869141 235.80078 C 39.709249 235.80078 24.980469 221.0798 24.980469 202.91992 C 24.980469 187.91004 35.029615 175.26049 48.769531 171.31055 L 48.769531 32.498047 C 48.769531 26.843083 53.32253 24.127344 57.875 24.183594 z M 101.16992 26.75 L 126.40039 26.75 C 129.07039 26.75 131.24023 28.909854 131.24023 31.589844 C 131.24023 34.259829 129.07039 36.429688 126.40039 36.429688 L 101.16992 36.429688 L 101.16992 26.75 z M 101.16992 53.179688 L 126.40039 53.179688 C 129.07039 53.179688 131.24023 55.349543 131.24023 58.019531 C 131.24023 60.689523 129.07039 62.859375 126.40039 62.859375 L 101.16992 62.859375 L 101.16992 53.179688 z M 101.16992 79.609375 L 126.40039 79.609375 C 129.07039 79.609375 131.24023 81.779225 131.24023 84.449219 C 131.24023 87.11921 129.07039 89.289062 126.40039 89.289062 L 101.16992 89.289062 L 101.16992 79.609375 z M 101.16992 106.03906 L 126.40039 106.03906 C 129.07039 106.03906 131.24023 108.21086 131.24023 110.88086 C 131.24023 113.55086 129.07039 115.7207 126.40039 115.7207 L 101.16992 115.7207 L 101.16992 106.03906 z M 101.16992 132.4707 L 126.40039 132.4707 C 129.07039 132.4707 131.24023 134.64055 131.24023 137.31055 C 131.24023 139.99054 129.07039 142.15039 126.40039 142.15039 L 101.16992 142.15039 L 101.16992 132.4707 z " />
  <path
     id="path34"
     d="M 58.349609 0 C 49.669618 0 41.790307 3.5497713 36.070312 9.2597656 C 30.360318 14.97976 26.810547 22.859071 26.810547 31.539062 L 26.810547 154.08008 C 10.690563 164.35007 0 182.38994 0 202.91992 C 4.7369468e-15 234.87989 25.909173 260.78906 57.869141 260.78906 C 89.829109 260.78906 115.74023 234.87989 115.74023 202.91992 C 115.74023 182.79994 105.48038 165.08093 89.900391 154.71094 L 89.900391 31.539062 C 89.900391 22.859071 86.350854 14.97976 80.630859 9.2597656 C 74.920865 3.5497713 67.029601 0 58.349609 0 z M 58.349609 10.679688 C 64.079604 10.679687 69.300082 13.030551 73.080078 16.810547 C 76.860074 20.600543 79.210938 25.809068 79.210938 31.539062 L 79.210938 99.949219 L 79.210938 163.60938 C 93.140924 171.18937 102.58984 185.94994 102.58984 202.91992 C 102.58984 227.6099 82.569116 247.63086 57.869141 247.63086 C 33.169165 247.63086 13.160156 227.6099 13.160156 202.91992 C 13.160156 185.55994 23.040249 170.5096 37.490234 163.09961 L 37.490234 31.539062 C 37.490234 25.809068 39.839144 20.600543 43.619141 16.810547 C 47.409137 13.030551 52.619615 10.679688 58.349609 10.679688 z " />
</svg>
